<svg version="1.1" id="Layer_1" xmlns="http://www.w3.org/2000/svg" xmlns:xlink="http://www.w3.org/1999/xlink" x="0px" y="0px"
	 width="100%" viewBox="0 0 667 238" enable-background="new 0 0 667 238" xml:space="preserve">
<path fill="#FFFFFF" opacity="1.000000" stroke="none" 
	d="
M536.000000,239.000000 
	C357.666656,239.000000 179.333328,239.000000 1.000000,239.000000 
	C1.000000,225.249954 1.000000,211.593643 1.376845,197.470673 
	C2.601999,198.248413 3.311957,199.621445 4.325934,200.711777 
	C6.840507,203.415649 9.079350,206.704056 12.162408,208.495087 
	C26.523090,216.837631 45.404530,205.099609 51.951916,194.272995 
	C52.742729,192.965332 51.679726,189.459503 50.331127,188.265717 
	C49.191006,187.256470 45.964478,187.399872 44.417744,188.313568 
	C41.505188,190.034134 39.293171,192.892609 36.515987,194.898819 
	C25.930723,202.545425 15.339165,200.085236 13.244884,187.541855 
	C11.974036,179.930313 11.779913,171.683533 13.289798,164.161255 
	C16.127754,150.022461 19.674023,135.886337 24.551140,122.334023 
	C29.849730,107.610535 36.439602,93.267189 43.567837,79.321045 
	C47.345863,71.929482 52.911072,65.208412 58.684238,59.151936 
	C63.853642,53.728859 70.536240,49.678028 78.708092,53.100857 
	C81.165657,54.130222 82.954552,56.887970 85.429337,57.706993 
	C87.887970,58.520672 91.552963,58.926140 93.374535,57.643688 
	C95.895493,55.868828 95.417755,52.929398 92.845619,50.140102 
	C88.118881,45.014297 81.865974,43.028805 75.779266,43.324303 
	C65.117142,43.841930 55.682163,48.464878 47.668369,55.795956 
	C33.358307,68.886894 24.738665,85.517044 19.162140,103.600426 
	C13.112317,123.218605 8.348478,143.232788 2.941448,163.051819 
	C2.731719,163.820557 1.666557,164.355896 0.999999,165.000000 
	C1.000000,110.395500 1.000000,55.791000 1.000000,1.000000 
	C74.354126,1.000000 147.708405,1.000000 221.828339,1.329926 
	C222.062515,2.817726 221.357574,3.928117 221.025681,5.140620 
	C216.238861,22.628170 211.505005,40.130211 206.752731,57.627220 
	C201.668304,76.347252 196.577850,95.065643 191.420609,114.040169 
	C175.640732,110.501419 164.776474,118.556183 155.382858,131.056808 
	C154.226196,117.049179 153.616989,116.333710 143.462677,115.834442 
	C144.360947,110.778946 140.597015,106.259773 135.670456,105.944565 
	C129.947723,105.578407 127.928703,109.952377 125.151100,113.476471 
	C121.261322,118.411613 121.181145,125.986275 114.389122,128.918381 
	C110.091599,130.773621 110.763206,134.677139 112.378738,137.271744 
	C113.177711,138.554916 117.431160,138.679733 119.591042,137.885574 
	C122.674606,136.751816 125.078888,133.864822 128.120407,132.500488 
	C132.766861,130.416229 137.709747,128.992798 143.224625,127.041962 
	C142.951355,129.258499 143.069290,130.026199 142.761536,130.537857 
	C138.537125,137.560898 134.420135,144.657776 129.922928,151.504089 
	C127.232292,155.600159 126.295570,160.824249 128.991348,163.402298 
	C132.291687,166.558517 135.914017,165.294434 139.286804,163.215271 
	C142.673294,161.127655 145.995819,158.936279 149.427292,156.738541 
	C152.713257,167.526825 157.911362,169.763199 167.749115,164.624115 
	C171.493881,162.667908 174.947876,160.155136 178.999893,157.602814 
	C178.999893,159.145050 179.076187,159.977539 178.986557,160.791748 
	C178.616898,164.149338 178.879364,167.313828 182.993469,167.917999 
	C187.063446,168.515701 188.402878,165.800705 189.338165,162.301453 
	C195.138596,140.600098 201.125076,118.948555 206.990005,97.264305 
	C213.106918,74.648338 219.284210,52.047329 225.173691,29.371887 
	C227.599350,20.032701 231.709579,10.996931 231.000000,1.000000 
	C376.556366,1.000000 522.112732,1.000000 668.000000,1.000000 
	C668.000000,47.687038 668.000000,94.374863 667.657715,141.831665 
	C663.541016,139.781219 660.086609,140.071381 656.885376,143.587036 
	C654.550598,146.151169 652.137390,148.643860 649.759155,151.168411 
	C649.288818,150.957794 648.818420,150.747162 648.348022,150.536545 
	C650.225830,143.989304 652.157288,137.456802 653.963135,130.889771 
	C655.224487,126.302902 656.806335,121.157745 652.769714,117.569885 
	C648.925171,114.152771 644.245789,116.305786 639.914246,117.909714 
	C638.748535,118.341362 636.844360,118.044106 635.804077,117.323631 
	C631.928894,114.639816 628.514160,115.647247 626.985107,120.402443 
	C625.221924,125.885742 623.782166,131.475830 621.913757,136.920654 
	C621.417664,138.366516 620.066040,140.200180 618.756531,140.552429 
	C615.396851,141.456223 611.840149,141.628204 608.349365,142.094452 
	C608.988892,139.640533 609.488525,137.601730 610.055298,135.581757 
	C610.658936,133.430023 611.583984,131.334839 611.912537,129.146469 
	C612.631348,124.359520 611.176575,117.397057 607.621277,116.202148 
	C600.153809,113.692352 589.661560,116.260475 584.798218,122.845657 
	C577.604309,132.586578 572.078308,143.066254 572.934875,155.871521 
	C573.353210,162.126709 576.490234,166.978607 582.124878,168.651947 
	C586.956726,170.086868 592.724487,167.688309 596.013977,162.946472 
	C598.037903,160.029007 599.562317,155.731827 602.344482,154.604248 
	C607.081726,152.684296 612.633179,152.773422 617.492676,152.069138 
	C616.619751,157.178986 615.657288,161.900391 615.123657,166.669815 
	C615.010376,167.682724 616.234741,169.513672 617.231323,169.864716 
	C621.187744,171.258240 625.040527,169.005066 625.968018,165.040451 
	C627.688416,157.686188 629.195618,150.278687 631.072449,142.965424 
	C632.555786,137.185440 634.358276,131.430466 642.193237,130.066544 
	C640.939697,136.153534 639.349121,142.011505 638.617432,147.974854 
	C637.938416,153.509018 637.685730,159.200684 638.193481,164.736038 
	C638.500549,168.083603 643.576477,170.341492 645.851074,168.514160 
	C650.774414,164.558929 655.296204,160.106064 660.017456,155.896317 
	C662.641663,153.556458 665.336853,151.296173 668.000000,149.000000 
	C668.000000,178.938553 668.000000,208.877106 668.000000,239.000000 
	C626.979309,239.000000 585.958313,239.000000 544.150269,238.660034 
	C543.902466,236.803970 544.633484,235.326965 544.951538,233.765823 
	C548.686768,215.433731 551.525269,196.871063 556.244995,178.798706 
	C563.334900,151.650238 572.008911,124.918404 579.371033,97.835899 
	C581.134583,91.348839 584.682678,88.507713 590.479980,87.228210 
	C594.418091,86.359032 598.508301,86.055214 602.343262,84.884956 
	C605.051636,84.058487 608.762024,82.797989 609.715027,80.687935 
	C611.895996,75.859406 607.500061,72.827148 601.280029,74.292450 
	C596.641296,75.385216 591.936035,76.195015 586.579529,77.267097 
	C587.390320,74.628014 587.865906,72.786926 588.521606,71.012383 
	C589.578186,68.152885 588.920044,65.967255 586.147217,64.617714 
	C583.111023,63.140007 580.690125,64.284660 579.076233,66.900566 
	C578.088867,68.500923 577.415222,70.407013 577.057800,72.263779 
	C575.753357,79.041519 571.939819,83.302765 565.522461,86.028595 
	C559.786438,88.465012 554.459900,91.892754 549.037842,95.030190 
	C546.221436,96.659912 544.587463,101.943771 546.487122,103.847725 
	C548.822327,106.188271 551.297424,106.907112 554.603577,104.207878 
	C558.378601,101.125816 563.036194,99.124626 567.843323,96.345581 
	C567.843323,98.246094 568.117310,99.449783 567.798889,100.468224 
	C565.742432,107.045303 563.168884,113.486435 561.525452,120.159470 
	C559.972717,126.464134 558.027710,131.718735 550.494629,131.661896 
	C549.283875,129.658249 548.130920,127.750237 547.263611,126.315063 
	C548.536316,123.510460 549.928711,121.137497 550.707458,118.577820 
	C552.221069,113.602432 547.551941,107.472519 543.297302,109.153137 
	C535.098389,112.391815 526.918030,116.620552 522.976746,124.865891 
	C520.349792,130.361481 514.615967,130.850143 511.688293,135.174408 
	C516.132874,118.110703 511.039642,115.961182 501.429565,115.689384 
	C503.132538,110.982101 499.619171,108.237503 496.703369,106.564018 
	C493.604095,104.785210 489.330292,105.368820 486.943237,108.691193 
	C483.966827,112.833878 481.679382,117.465485 478.956116,121.799057 
	C477.794250,123.647972 476.596222,125.728096 474.874115,126.926231 
	C468.138641,131.612289 462.471771,137.262115 457.537506,143.808136 
	C455.544952,146.451584 452.662384,148.424149 450.184845,150.702026 
	C449.791351,150.339966 449.397858,149.977905 449.004333,149.615845 
	C449.106537,148.505020 449.000519,147.324585 449.344818,146.294693 
	C451.579987,139.608429 453.735718,132.886887 456.259064,126.307915 
	C459.400543,118.117477 456.341583,113.480156 447.729950,114.048317 
	C445.835938,114.173271 443.739563,114.498032 442.152588,115.435417 
	C435.789642,119.193802 429.500458,123.095718 423.371002,127.222298 
	C420.576080,129.103989 419.695404,131.849152 422.285858,134.774673 
	C424.767334,137.577148 427.107483,137.964355 430.317627,135.335342 
	C434.682404,131.760742 439.550140,128.800247 444.202209,125.576401 
	C444.451172,125.866661 444.700165,126.156921 444.949127,126.447182 
	C443.764282,129.628571 442.579437,132.809967 441.456299,135.825653 
	C429.652374,135.752335 421.225647,141.969513 413.866882,149.826523 
	C410.448303,153.476578 409.556946,158.577637 411.852234,163.017380 
	C413.024811,165.285461 416.401215,167.576111 418.913940,167.732773 
	C423.316437,168.007278 427.949280,167.082596 432.238861,165.821136 
	C435.248932,164.935974 437.409302,163.800293 440.720490,165.826172 
	C442.835876,167.120438 447.400879,167.115601 449.248566,165.650848 
	C455.546539,160.658096 461.820984,155.313492 466.803528,149.065720 
	C472.909393,141.409332 480.383636,135.752365 488.622711,131.047577 
	C492.154602,129.030762 496.653442,128.707382 501.341187,127.445457 
	C500.902649,129.406830 500.915955,130.304581 500.522919,130.957886 
	C496.381012,137.842728 492.340851,144.798325 487.923523,151.504456 
	C485.225433,155.600479 484.295074,160.828674 486.994354,163.405380 
	C490.298248,166.559265 494.197693,165.618378 497.238434,163.146439 
	C504.324188,157.386139 511.260895,151.412537 517.896973,145.143219 
	C520.725220,142.471191 522.651001,138.843903 525.462830,135.000244 
	C528.097778,135.000244 531.756714,134.846207 535.389587,135.086182 
	C536.614319,135.167053 537.772949,136.247803 538.961792,136.871582 
	C538.278564,138.098877 537.899719,139.787430 536.859558,140.473785 
	C532.307312,143.477783 527.557251,146.181137 522.890808,149.013123 
	C518.489197,151.684357 513.840210,154.051743 509.848663,157.239639 
	C508.415375,158.384323 507.859985,161.678421 508.272705,163.714020 
	C508.546478,165.064346 511.211121,166.787552 512.873901,166.864349 
	C527.529663,167.541382 539.143433,162.328262 545.793335,148.562012 
	C547.666199,144.684937 550.954285,143.845963 554.842407,142.910095 
	C553.467285,148.031296 552.109985,152.599106 551.019958,157.229828 
	C546.374390,176.965317 541.403381,196.638428 537.425049,216.509262 
	C535.971252,223.770676 532.263672,231.266098 536.000000,239.000000 
M366.489838,41.948006 
	C361.478119,39.475471 357.463867,42.570660 355.253113,45.789257 
	C350.845612,52.206009 346.759033,59.153244 344.193481,66.461823 
	C338.517609,82.631165 333.787567,99.136215 328.811890,115.546822 
	C320.251465,143.780533 311.760712,172.035568 303.345123,200.312729 
	C302.247375,204.001175 301.313904,207.864014 301.235443,211.665283 
	C301.206177,213.081589 303.604340,215.231079 305.322479,215.838226 
	C307.819061,216.720474 310.127258,215.626846 310.998230,212.633377 
	C317.450500,190.457626 323.635223,168.198318 330.479126,146.143707 
	C339.028717,118.592178 348.059937,91.188805 357.079224,63.785980 
	C358.172821,60.463428 360.482452,57.541122 362.251709,54.392002 
	C366.954865,57.408405 368.213531,60.947163 367.982300,65.108078 
	C367.727417,69.693787 367.748291,74.347481 366.926392,78.839333 
	C364.284302,93.279510 361.420074,107.682037 358.404236,122.049278 
	C357.285706,127.378075 355.371216,132.535156 354.081726,137.834320 
	C353.205414,141.435440 354.435577,144.715439 358.033783,145.849487 
	C361.319855,146.885147 363.434143,145.186676 364.302979,141.486130 
	C365.023346,138.418060 366.656036,135.537979 368.062317,132.661499 
	C376.739105,114.913109 385.391418,97.151817 394.245056,79.491669 
	C395.855988,76.278389 398.357941,73.511833 401.320312,69.299484 
	C402.211273,72.158257 403.023895,73.457100 402.925110,74.682472 
	C402.559509,79.218925 402.062103,83.759476 401.309418,88.247383 
	C398.607025,104.361275 395.730347,120.445915 393.018646,136.558289 
	C391.350952,146.467194 390.302704,156.501038 388.189789,166.309357 
	C385.179565,180.283096 381.387848,194.087036 378.052979,207.992996 
	C376.711731,213.585739 379.816742,217.468048 384.514069,215.778137 
	C386.431854,215.088211 388.380829,212.247772 388.833527,210.076660 
	C392.424133,192.858017 395.606567,175.554825 399.015656,158.297623 
	C402.142395,142.469772 405.769775,126.730675 408.479095,110.833603 
	C410.827148,97.056480 412.404907,83.134163 413.842712,69.226357 
	C414.169952,66.060822 413.049133,62.437008 411.638489,59.480408 
	C409.968170,55.979546 407.061920,54.323669 402.587372,55.706806 
	C396.075104,57.719818 392.735016,62.942482 389.085175,67.816170 
	C385.430054,72.696838 382.303131,77.973038 378.944702,83.075882 
	C378.000000,81.228172 377.946686,79.646065 378.008698,78.068504 
	C378.389832,68.373428 377.829041,58.737850 373.859863,49.780735 
	C372.539001,46.799946 369.523010,44.570328 366.489838,41.948006 
M86.451996,162.038132 
	C87.945969,160.113907 89.343483,158.102402 90.973076,156.300858 
	C91.836906,155.345871 93.012886,154.326126 94.204315,154.073715 
	C99.878883,152.871536 105.637352,152.062271 111.305626,150.834610 
	C115.061584,150.021118 117.282356,146.187729 115.911118,142.918823 
	C114.597641,139.787598 112.113739,139.549728 108.937317,140.457794 
	C105.557030,141.424133 101.960579,141.634338 98.275330,142.202972 
	C98.943764,139.769882 99.481644,137.782440 100.036659,135.799759 
	C100.639023,133.647903 101.436119,131.532852 101.832008,129.344528 
	C102.695602,124.570976 101.225906,117.265663 97.361259,116.088341 
	C88.367889,113.348618 80.523735,116.165237 75.057365,122.789970 
	C67.367401,132.109528 62.155479,142.858948 62.935665,155.660782 
	C63.333157,162.183121 66.173561,166.697510 71.980835,168.501556 
	C77.238876,170.134995 82.332756,168.014038 86.451996,162.038132 
z"/>
<path fill="#333333" opacity="1.000000" stroke="none" 
	d="
M536.444153,239.000000 
	C532.263672,231.266098 535.971252,223.770676 537.425049,216.509262 
	C541.403381,196.638428 546.374390,176.965317 551.019958,157.229828 
	C552.109985,152.599106 553.467285,148.031296 554.842407,142.910095 
	C550.954285,143.845963 547.666199,144.684937 545.793335,148.562012 
	C539.143433,162.328262 527.529663,167.541382 512.873901,166.864349 
	C511.211121,166.787552 508.546478,165.064346 508.272705,163.714020 
	C507.859985,161.678421 508.415375,158.384323 509.848663,157.239639 
	C513.840210,154.051743 518.489197,151.684357 522.890808,149.013123 
	C527.557251,146.181137 532.307312,143.477783 536.859558,140.473785 
	C537.899719,139.787430 538.278564,138.098877 538.961792,136.871582 
	C537.772949,136.247803 536.614319,135.167053 535.389587,135.086182 
	C531.756714,134.846207 528.097778,135.000244 525.462830,135.000244 
	C522.651001,138.843903 520.725220,142.471191 517.896973,145.143219 
	C511.260895,151.412537 504.324188,157.386139 497.238434,163.146439 
	C494.197693,165.618378 490.298248,166.559265 486.994354,163.405380 
	C484.295074,160.828674 485.225433,155.600479 487.923523,151.504456 
	C492.340851,144.798325 496.381012,137.842728 500.522919,130.957886 
	C500.915955,130.304581 500.902649,129.406830 501.341187,127.445457 
	C496.653442,128.707382 492.154602,129.030762 488.622711,131.047577 
	C480.383636,135.752365 472.909393,141.409332 466.803528,149.065720 
	C461.820984,155.313492 455.546539,160.658096 449.248566,165.650848 
	C447.400879,167.115601 442.835876,167.120438 440.720490,165.826172 
	C437.409302,163.800293 435.248932,164.935974 432.238861,165.821136 
	C427.949280,167.082596 423.316437,168.007278 418.913940,167.732773 
	C416.401215,167.576111 413.024811,165.285461 411.852234,163.017380 
	C409.556946,158.577637 410.448303,153.476578 413.866882,149.826523 
	C421.225647,141.969513 429.652374,135.752335 441.456299,135.825653 
	C442.579437,132.809967 443.764282,129.628571 444.949127,126.447182 
	C444.700165,126.156921 444.451172,125.866661 444.202209,125.576401 
	C439.550140,128.800247 434.682404,131.760742 430.317627,135.335342 
	C427.107483,137.964355 424.767334,137.577148 422.285858,134.774673 
	C419.695404,131.849152 420.576080,129.103989 423.371002,127.222298 
	C429.500458,123.095718 435.789642,119.193802 442.152588,115.435417 
	C443.739563,114.498032 445.835938,114.173271 447.729950,114.048317 
	C456.341583,113.480156 459.400543,118.117477 456.259064,126.307915 
	C453.735718,132.886887 451.579987,139.608429 449.344818,146.294693 
	C449.000519,147.324585 449.106537,148.505020 449.004333,149.615845 
	C449.397858,149.977905 449.791351,150.339966 450.184845,150.702026 
	C452.662384,148.424149 455.544952,146.451584 457.537506,143.808136 
	C462.471771,137.262115 468.138641,131.612289 474.874115,126.926231 
	C476.596222,125.728096 477.794250,123.647972 478.956116,121.799057 
	C481.679382,117.465485 483.966827,112.833878 486.943237,108.691193 
	C489.330292,105.368820 493.604095,104.785210 496.703369,106.564018 
	C499.619171,108.237503 503.132538,110.982101 501.429565,115.689384 
	C511.039642,115.961182 516.132874,118.110703 511.688293,135.174408 
	C514.615967,130.850143 520.349792,130.361481 522.976746,124.865891 
	C526.918030,116.620552 535.098389,112.391815 543.297302,109.153137 
	C547.551941,107.472519 552.221069,113.602432 550.707458,118.577820 
	C549.928711,121.137497 548.536316,123.510460 547.263611,126.315063 
	C548.130920,127.750237 549.283875,129.658249 550.494629,131.661896 
	C558.027710,131.718735 559.972717,126.464134 561.525452,120.159470 
	C563.168884,113.486435 565.742432,107.045303 567.798889,100.468224 
	C568.117310,99.449783 567.843323,98.246094 567.843323,96.345581 
	C563.036194,99.124626 558.378601,101.125816 554.603577,104.207878 
	C551.297424,106.907112 548.822327,106.188271 546.487122,103.847725 
	C544.587463,101.943771 546.221436,96.659912 549.037842,95.030190 
	C554.459900,91.892754 559.786438,88.465012 565.522461,86.028595 
	C571.939819,83.302765 575.753357,79.041519 577.057800,72.263779 
	C577.415222,70.407013 578.088867,68.500923 579.076233,66.900566 
	C580.690125,64.284660 583.111023,63.140007 586.147217,64.617714 
	C588.920044,65.967255 589.578186,68.152885 588.521606,71.012383 
	C587.865906,72.786926 587.390320,74.628014 586.579529,77.267097 
	C591.936035,76.195015 596.641296,75.385216 601.280029,74.292450 
	C607.500061,72.827148 611.895996,75.859406 609.715027,80.687935 
	C608.762024,82.797989 605.051636,84.058487 602.343262,84.884956 
	C598.508301,86.055214 594.418091,86.359032 590.479980,87.228210 
	C584.682678,88.507713 581.134583,91.348839 579.371033,97.835899 
	C572.008911,124.918404 563.334900,151.650238 556.244995,178.798706 
	C551.525269,196.871063 548.686768,215.433731 544.951538,233.765823 
	C544.633484,235.326965 543.902466,236.803970 543.681641,238.660034 
	C541.629456,239.000000 539.258850,239.000000 536.444153,239.000000 
M434.737183,148.024826 
	C431.192017,150.388947 427.646851,152.753082 424.101715,155.117203 
	C424.341309,155.514435 424.580902,155.911667 424.820526,156.308899 
	C428.677338,154.858093 432.640076,153.622498 436.319641,151.811493 
	C437.290070,151.333847 437.385956,149.079224 437.883423,147.640564 
	C437.093353,147.743530 436.303253,147.846497 434.737183,148.024826 
z"/>
<path fill="#333333" opacity="1.000000" stroke="none" 
	d="
M230.550018,1.000000 
	C231.709579,10.996931 227.599350,20.032701 225.173691,29.371887 
	C219.284210,52.047329 213.106918,74.648338 206.990005,97.264305 
	C201.125076,118.948555 195.138596,140.600098 189.338165,162.301453 
	C188.402878,165.800705 187.063446,168.515701 182.993469,167.917999 
	C178.879364,167.313828 178.616898,164.149338 178.986557,160.791748 
	C179.076187,159.977539 178.999893,159.145050 178.999893,157.602814 
	C174.947876,160.155136 171.493881,162.667908 167.749115,164.624115 
	C157.911362,169.763199 152.713257,167.526825 149.427292,156.738541 
	C145.995819,158.936279 142.673294,161.127655 139.286804,163.215271 
	C135.914017,165.294434 132.291687,166.558517 128.991348,163.402298 
	C126.295570,160.824249 127.232292,155.600159 129.922928,151.504089 
	C134.420135,144.657776 138.537125,137.560898 142.761536,130.537857 
	C143.069290,130.026199 142.951355,129.258499 143.224625,127.041962 
	C137.709747,128.992798 132.766861,130.416229 128.120407,132.500488 
	C125.078888,133.864822 122.674606,136.751816 119.591042,137.885574 
	C117.431160,138.679733 113.177711,138.554916 112.378738,137.271744 
	C110.763206,134.677139 110.091599,130.773621 114.389122,128.918381 
	C121.181145,125.986275 121.261322,118.411613 125.151100,113.476471 
	C127.928703,109.952377 129.947723,105.578407 135.670456,105.944565 
	C140.597015,106.259773 144.360947,110.778946 143.462677,115.834442 
	C153.616989,116.333710 154.226196,117.049179 155.382858,131.056808 
	C164.776474,118.556183 175.640732,110.501419 191.420609,114.040169 
	C196.577850,95.065643 201.668304,76.347252 206.752731,57.627220 
	C211.505005,40.130211 216.238861,22.628170 221.025681,5.140620 
	C221.357574,3.928117 222.062515,2.817726 222.296997,1.329926 
	C224.700012,1.000000 227.400024,1.000000 230.550018,1.000000 
M160.996292,146.702698 
	C160.566223,149.369110 160.136154,152.035522 159.490784,156.036896 
	C162.662170,154.631058 164.767365,153.974731 166.572601,152.840851 
	C170.521469,150.360550 174.087662,146.043533 178.238953,145.443542 
	C182.774689,144.787994 183.913589,142.671326 184.807495,139.425491 
	C186.195557,134.385330 187.309464,129.269684 188.501846,124.342041 
	C180.113083,122.600014 173.322815,125.320946 168.571259,132.067108 
	C165.571045,136.326736 163.507339,141.245972 160.996292,146.702698 
z"/>
<path fill="#333333" opacity="1.000000" stroke="none" 
	d="
M668.000000,148.562500 
	C665.336853,151.296173 662.641663,153.556458 660.017456,155.896317 
	C655.296204,160.106064 650.774414,164.558929 645.851074,168.514160 
	C643.576477,170.341492 638.500549,168.083603 638.193481,164.736038 
	C637.685730,159.200684 637.938416,153.509018 638.617432,147.974854 
	C639.349121,142.011505 640.939697,136.153534 642.193237,130.066544 
	C634.358276,131.430466 632.555786,137.185440 631.072449,142.965424 
	C629.195618,150.278687 627.688416,157.686188 625.968018,165.040451 
	C625.040527,169.005066 621.187744,171.258240 617.231323,169.864716 
	C616.234741,169.513672 615.010376,167.682724 615.123657,166.669815 
	C615.657288,161.900391 616.619751,157.178986 617.492676,152.069138 
	C612.633179,152.773422 607.081726,152.684296 602.344482,154.604248 
	C599.562317,155.731827 598.037903,160.029007 596.013977,162.946472 
	C592.724487,167.688309 586.956726,170.086868 582.124878,168.651947 
	C576.490234,166.978607 573.353210,162.126709 572.934875,155.871521 
	C572.078308,143.066254 577.604309,132.586578 584.798218,122.845657 
	C589.661560,116.260475 600.153809,113.692352 607.621277,116.202148 
	C611.176575,117.397057 612.631348,124.359520 611.912537,129.146469 
	C611.583984,131.334839 610.658936,133.430023 610.055298,135.581757 
	C609.488525,137.601730 608.988892,139.640533 608.349365,142.094452 
	C611.840149,141.628204 615.396851,141.456223 618.756531,140.552429 
	C620.066040,140.200180 621.417664,138.366516 621.913757,136.920654 
	C623.782166,131.475830 625.221924,125.885742 626.985107,120.402443 
	C628.514160,115.647247 631.928894,114.639816 635.804077,117.323631 
	C636.844360,118.044106 638.748535,118.341362 639.914246,117.909714 
	C644.245789,116.305786 648.925171,114.152771 652.769714,117.569885 
	C656.806335,121.157745 655.224487,126.302902 653.963135,130.889771 
	C652.157288,137.456802 650.225830,143.989304 648.348022,150.536545 
	C648.818420,150.747162 649.288818,150.957794 649.759155,151.168411 
	C652.137390,148.643860 654.550598,146.151169 656.885376,143.587036 
	C660.086609,140.071381 663.541016,139.781219 667.657715,142.300323 
	C668.000000,144.041672 668.000000,146.083328 668.000000,148.562500 
M585.037048,144.671356 
	C584.692139,145.894180 584.418640,147.142868 583.987122,148.334335 
	C583.142578,150.666260 583.323059,152.374741 585.948547,153.554398 
	C588.837097,154.852264 590.028198,153.529388 591.016724,151.122070 
	C591.743530,149.352158 592.563843,147.588654 593.588501,145.978867 
	C597.141357,140.397339 596.026794,134.168564 597.139221,127.232819 
	C590.151245,131.723129 587.811462,137.862411 585.037048,144.671356 
z"/>
<path fill="#333333" opacity="1.000000" stroke="none" 
	d="
M0.999999,165.468658 
	C1.666557,164.355896 2.731719,163.820557 2.941448,163.051819 
	C8.348478,143.232788 13.112317,123.218605 19.162140,103.600426 
	C24.738665,85.517044 33.358307,68.886894 47.668369,55.795956 
	C55.682163,48.464878 65.117142,43.841930 75.779266,43.324303 
	C81.865974,43.028805 88.118881,45.014297 92.845619,50.140102 
	C95.417755,52.929398 95.895493,55.868828 93.374535,57.643688 
	C91.552963,58.926140 87.887970,58.520672 85.429337,57.706993 
	C82.954552,56.887970 81.165657,54.130222 78.708092,53.100857 
	C70.536240,49.678028 63.853642,53.728859 58.684238,59.151936 
	C52.911072,65.208412 47.345863,71.929482 43.567837,79.321045 
	C36.439602,93.267189 29.849730,107.610535 24.551140,122.334023 
	C19.674023,135.886337 16.127754,150.022461 13.289798,164.161255 
	C11.779913,171.683533 11.974036,179.930313 13.244884,187.541855 
	C15.339165,200.085236 25.930723,202.545425 36.515987,194.898819 
	C39.293171,192.892609 41.505188,190.034134 44.417744,188.313568 
	C45.964478,187.399872 49.191006,187.256470 50.331127,188.265717 
	C51.679726,189.459503 52.742729,192.965332 51.951916,194.272995 
	C45.404530,205.099609 26.523090,216.837631 12.162408,208.495087 
	C9.079350,206.704056 6.840507,203.415649 4.325934,200.711777 
	C3.311957,199.621445 2.601999,198.248413 1.376845,197.002014 
	C1.000000,186.645767 1.000000,176.291550 0.999999,165.468658 
z"/>
<path fill="#333333" opacity="1.000000" stroke="none" 
	d="
M366.885895,41.972656 
	C369.523010,44.570328 372.539001,46.799946 373.859863,49.780735 
	C377.829041,58.737850 378.389832,68.373428 378.008698,78.068504 
	C377.946686,79.646065 378.000000,81.228172 378.944702,83.075882 
	C382.303131,77.973038 385.430054,72.696838 389.085175,67.816170 
	C392.735016,62.942482 396.075104,57.719818 402.587372,55.706806 
	C407.061920,54.323669 409.968170,55.979546 411.638489,59.480408 
	C413.049133,62.437008 414.169952,66.060822 413.842712,69.226357 
	C412.404907,83.134163 410.827148,97.056480 408.479095,110.833603 
	C405.769775,126.730675 402.142395,142.469772 399.015656,158.297623 
	C395.606567,175.554825 392.424133,192.858017 388.833527,210.076660 
	C388.380829,212.247772 386.431854,215.088211 384.514069,215.778137 
	C379.816742,217.468048 376.711731,213.585739 378.052979,207.992996 
	C381.387848,194.087036 385.179565,180.283096 388.189789,166.309357 
	C390.302704,156.501038 391.350952,146.467194 393.018646,136.558289 
	C395.730347,120.445915 398.607025,104.361275 401.309418,88.247383 
	C402.062103,83.759476 402.559509,79.218925 402.925110,74.682472 
	C403.023895,73.457100 402.211273,72.158257 401.320312,69.299484 
	C398.357941,73.511833 395.855988,76.278389 394.245056,79.491669 
	C385.391418,97.151817 376.739105,114.913109 368.062317,132.661499 
	C366.656036,135.537979 365.023346,138.418060 364.302979,141.486130 
	C363.434143,145.186676 361.319855,146.885147 358.033783,145.849487 
	C354.435577,144.715439 353.205414,141.435440 354.081726,137.834320 
	C355.371216,132.535156 357.285706,127.378075 358.404236,122.049278 
	C361.420074,107.682037 364.284302,93.279510 366.926392,78.839333 
	C367.748291,74.347481 367.727417,69.693787 367.982300,65.108078 
	C368.213531,60.947163 366.954865,57.408405 362.251709,54.392002 
	C360.482452,57.541122 358.172821,60.463428 357.079224,63.785980 
	C348.059937,91.188805 339.028717,118.592178 330.479126,146.143707 
	C323.635223,168.198318 317.450500,190.457626 310.998230,212.633377 
	C310.127258,215.626846 307.819061,216.720474 305.322479,215.838226 
	C303.604340,215.231079 301.206177,213.081589 301.235443,211.665283 
	C301.313904,207.864014 302.247375,204.001175 303.345123,200.312729 
	C311.760712,172.035568 320.251465,143.780533 328.811890,115.546822 
	C333.787567,99.136215 338.517609,82.631165 344.193481,66.461823 
	C346.759033,59.153244 350.845612,52.206009 355.253113,45.789257 
	C357.463867,42.570660 361.478119,39.475471 366.885895,41.972656 
z"/>
<path fill="#333333" opacity="1.000000" stroke="none" 
	d="
M86.241585,162.344757 
	C82.332756,168.014038 77.238876,170.134995 71.980835,168.501556 
	C66.173561,166.697510 63.333157,162.183121 62.935665,155.660782 
	C62.155479,142.858948 67.367401,132.109528 75.057365,122.789970 
	C80.523735,116.165237 88.367889,113.348618 97.361259,116.088341 
	C101.225906,117.265663 102.695602,124.570976 101.832008,129.344528 
	C101.436119,131.532852 100.639023,133.647903 100.036659,135.799759 
	C99.481644,137.782440 98.943764,139.769882 98.275330,142.202972 
	C101.960579,141.634338 105.557030,141.424133 108.937317,140.457794 
	C112.113739,139.549728 114.597641,139.787598 115.911118,142.918823 
	C117.282356,146.187729 115.061584,150.021118 111.305626,150.834610 
	C105.637352,152.062271 99.878883,152.871536 94.204315,154.073715 
	C93.012886,154.326126 91.836906,155.345871 90.973076,156.300858 
	C89.343483,158.102402 87.945969,160.113907 86.241585,162.344757 
M75.000343,145.474762 
	C74.508980,146.988953 73.492134,148.572464 73.680069,149.997040 
	C73.853798,151.313950 75.088387,152.874161 76.291656,153.542847 
	C77.153160,154.021591 79.413033,153.641602 79.889183,152.900055 
	C84.707222,145.396362 87.566109,137.293411 86.748367,127.515106 
	C79.840225,131.755737 77.820641,138.478958 75.000343,145.474762 
z"/>
<path fill="#FFFFFF" opacity="1.000000" stroke="none" 
	d="
M435.125183,147.987137 
	C436.303253,147.846497 437.093353,147.743530 437.883423,147.640564 
	C437.385956,149.079224 437.290070,151.333847 436.319641,151.811493 
	C432.640076,153.622498 428.677338,154.858093 424.820526,156.308899 
	C424.580902,155.911667 424.341309,155.514435 424.101715,155.117203 
	C427.646851,152.753082 431.192017,150.388947 435.125183,147.987137 
z"/>
<path fill="#FFFFFF" opacity="1.000000" stroke="none" 
	d="
M161.009933,146.286026 
	C163.507339,141.245972 165.571045,136.326736 168.571259,132.067108 
	C173.322815,125.320946 180.113083,122.600014 188.501846,124.342041 
	C187.309464,129.269684 186.195557,134.385330 184.807495,139.425491 
	C183.913589,142.671326 182.774689,144.787994 178.238953,145.443542 
	C174.087662,146.043533 170.521469,150.360550 166.572601,152.840851 
	C164.767365,153.974731 162.662170,154.631058 159.490784,156.036896 
	C160.136154,152.035522 160.566223,149.369110 161.009933,146.286026 
z"/>
<path fill="#FFFFFF" opacity="1.000000" stroke="none" 
	d="
M585.261047,144.341034 
	C587.811462,137.862411 590.151245,131.723129 597.139221,127.232819 
	C596.026794,134.168564 597.141357,140.397339 593.588501,145.978867 
	C592.563843,147.588654 591.743530,149.352158 591.016724,151.122070 
	C590.028198,153.529388 588.837097,154.852264 585.948547,153.554398 
	C583.323059,152.374741 583.142578,150.666260 583.987122,148.334335 
	C584.418640,147.142868 584.692139,145.894180 585.261047,144.341034 
z"/>
<path fill="#FFFFFF" opacity="1.000000" stroke="none" 
	d="
M75.018463,145.074738 
	C77.820641,138.478958 79.840225,131.755737 86.748367,127.515106 
	C87.566109,137.293411 84.707222,145.396362 79.889183,152.900055 
	C79.413033,153.641602 77.153160,154.021591 76.291656,153.542847 
	C75.088387,152.874161 73.853798,151.313950 73.680069,149.997040 
	C73.492134,148.572464 74.508980,146.988953 75.018463,145.074738 
z"/>
</svg>